
<svg width="100" height="100" viewBox="0 0 100 100" xmlns="http://www.w3.org/2000/svg">
  <path d="M15 10h5v5h-5v-5zm10 0h5v5h-5v-5zm10 0h5v5h-5v-5zm10 0h5v5h-5v-5zm10 0h5v5h-5v-5zM5 20h5v5H5v-5zm10 0h5v5h-5v-5zm10 0h5v5h-5v-5zm10 0h5v5h-5v-5zm10 0h5v5h-5v-5zm10 0h5v5h-5v-5zM5 30h5v5H5v-5zm10 0h5v5h-5v-5zm10 0h5v5h-5v-5zm10 0h5v5h-5v-5zm10 0h5v5h-5v-5zm10 0h5v5h-5v-5zM5 40h5v5H5v-5zm10 0h5v5h-5v-5zm10 0h5v5h-5v-5zm10 0h5v5h-5v-5zm10 0h5v5h-5v-5zm10 0h5v5h-5v-5zM5 50h5v5H5v-5zm10 0h5v5h-5v-5zm10 0h5v5h-5v-5zm10 0h5v5h-5v-5zm10 0h5v5h-5v-5zm10 0h5v5h-5v-5zM5 60h5v5H5v-5zm10 0h5v5h-5v-5zm10 0h5v5h-5v-5zm10 0h5v5h-5v-5zm10 0h5v5h-5v-5zm10 0h5v5h-5v-5zM5 70h5v5H5v-5zm10 0h5v5h-5v-5zm10 0h5v5h-5v-5zm10 0h5v5h-5v-5zm10 0h5v5h-5v-5zm10 0h5v5h-5v-5zM5 80h5v5H5v-5zm10 0h5v5h-5v-5zm10 0h5v5h-5v-5zm10 0h5v5h-5v-5zm10 0h5v5h-5v-5zm10 0h5v5h-5v-5zM5 90h5v5H5v-5zm10 0h5v5h-5v-5zm10 0h5v5h-5v-5zm10 0h5v5h-5v-5zm10 0h5v5h-5v-5zm10 0h5v5h-5v-5z" fill="#00A6FB" fill-opacity="0.05" fill-rule="evenodd"/>
</svg>
